<svg xmlns="http://www.w3.org/2000/svg" viewBox="0 0 640 480"><rect width="640" height="480" rx="32" fill="#F8E7DF"/><circle cx="320" cy="200" r="101" fill="#B96F4D"/><path d="M218 205c-7-95 39-148 107-148 78 0 116 67 98 164-27-43-53-79-105-104-20 37-52 66-100 88Z" fill="#342D35"/><circle cx="284" cy="207" r="7" fill="#342D35"/><circle cx="357" cy="207" r="7" fill="#342D35"/><path d="M289 253c20 17 43 17 64 0" fill="none" stroke="#6E382C" stroke-width="8" stroke-linecap="round"/><path d="M128 480c20-118 92-181 192-181s172 63 192 181" fill="#C75C4E"/><path d="M220 353c63 62 137 64 201 0" fill="none" stroke="#F6C6A7" stroke-width="22" stroke-linecap="round"/></svg>
