<svg xmlns="http://www.w3.org/2000/svg" viewBox="0 0 640 480"><rect width="640" height="480" rx="32" fill="#F3E8F5"/><circle cx="320" cy="201" r="94" fill="#C9825D"/><path d="M231 173c10-79 51-119 95-119 60 0 97 45 92 123-39-9-73-30-102-61-19 28-48 47-85 57Z" fill="#302C3B"/><path d="M241 219c-45 30-45 107-4 134M400 219c45 30 45 107 4 134" fill="none" stroke="#302C3B" stroke-width="25" stroke-linecap="round"/><circle cx="285" cy="207" r="7" fill="#302C3B"/><circle cx="355" cy="207" r="7" fill="#302C3B"/><path d="M290 250c20 20 42 20 62 0" fill="none" stroke="#783F30" stroke-width="8" stroke-linecap="round"/><path d="M139 480c21-119 86-180 181-180s160 61 181 180" fill="#6C5AA5"/><path d="M270 303l50 53 50-53" fill="#FFF8EE"/></svg>
